<?xml version="1.0" encoding="UTF-8"?>
<svg width="35px" height="35px" viewBox="0 0 35 35" version="1.1" xmlns="http://www.w3.org/2000/svg" xmlns:xlink="http://www.w3.org/1999/xlink">
    <!-- Generator: Sketch 47.1 (45422) - http://www.bohemiancoding.com/sketch -->
    <title>Group 5</title>
    <desc>Created with Sketch.</desc>
    <defs></defs>
    <g id="Page-1" stroke="none" stroke-width="1" fill="none" fill-rule="evenodd">
        <g id="Artboard-2" transform="translate(-583.000000, -244.000000)">
            <g id="Footer" transform="translate(185.000000, 161.000000)">
                <g id="12---Footer" transform="translate(345.000000, 83.000000)">
                    <g id="RS">
                        <g id="Group-5" transform="translate(53.913972, 1.109700)">
                            <ellipse id="Oval-Copy-2" stroke="#000000" stroke-width="1.2" cx="16.4411693" cy="16.6416714" rx="16.4411693" ry="16.6416714"></ellipse>
                            <g id="002-instagram-logo" transform="translate(7.772189, 7.866972)" fill-rule="nonzero" fill="#000000">
                                <path d="M12.9144242,0 L4.92222233,0 C2.20811058,0 0,2.23514555 0,4.98235623 L0,13.072024 C0,15.8193414 2.20811058,18.0543802 4.92222233,18.0543802 L12.9144242,18.0543802 C15.628747,18.0543802 17.8368575,15.8192346 17.8368575,13.072024 L17.8368575,4.98235623 C17.8369631,2.23514555 15.628747,0 12.9144242,0 Z M16.2543906,13.072024 C16.2543906,14.9360692 14.7561165,16.4525081 12.9145297,16.4525081 L4.92222233,16.4525081 C3.08074103,16.4526149 1.58257245,14.9360692 1.58257245,13.072024 L1.58257245,4.98235623 C1.58257245,3.11841784 3.08074103,1.60187211 4.92222233,1.60187211 L12.9144242,1.60187211 C14.756011,1.60187211 16.2542851,3.11841784 16.2542851,4.98235623 L16.2542851,13.072024 L16.2543906,13.072024 Z" id="Shape"></path>
                                <path d="M8.91842877,4.3752467 C6.38409726,4.3752467 4.32232187,6.46216568 4.32232187,9.02740368 C4.32232187,11.5925349 6.38409726,13.6793471 8.91842877,13.6793471 C11.4527603,13.6793471 13.5145357,11.5925349 13.5145357,9.02740368 C13.5145357,6.46216568 11.4527603,4.3752467 8.91842877,4.3752467 Z M8.91842877,12.0773682 C7.25683321,12.0773682 5.90489432,10.7091558 5.90489432,9.02729689 C5.90489432,7.34533117 7.2567277,5.97701202 8.91842877,5.97701202 C10.5801298,5.97701202 11.9319632,7.34533117 11.9319632,9.02729689 C11.9319632,10.7091558 10.5800243,12.0773682 8.91842877,12.0773682 Z" id="Shape"></path>
                                <path d="M13.707293,3.01696594 C13.402384,3.01696594 13.1028558,3.14191196 12.8875205,3.36083448 C12.6711301,3.57868909 12.5467399,3.88197688 12.5467399,4.19167215 C12.5467399,4.5004063 12.6712356,4.8035873 12.8875205,5.02250982 C13.1027503,5.24036443 13.402384,5.36637837 13.707293,5.36637837 C14.013257,5.36637837 14.3118357,5.24036443 14.5281206,5.02250982 C14.7444055,4.8035873 14.8678461,4.50029951 14.8678461,4.19167215 C14.8678461,3.88197688 14.7444055,3.57868909 14.5281206,3.36083448 C14.3128907,3.14191196 14.013257,3.01696594 13.707293,3.01696594 Z" id="Shape"></path>
                            </g>
                        </g>
                    </g>
                </g>
            </g>
        </g>
    </g>
</svg>