<?xml version="1.0" encoding="UTF-8"?>
<svg width="35px" height="35px" viewBox="0 0 35 35" version="1.1" xmlns="http://www.w3.org/2000/svg" xmlns:xlink="http://www.w3.org/1999/xlink">
    <!-- Generator: Sketch 47.1 (45422) - http://www.bohemiancoding.com/sketch -->
    <title>Group 4</title>
    <desc>Created with Sketch.</desc>
    <defs></defs>
    <g id="Page-1" stroke="none" stroke-width="1" fill="none" fill-rule="evenodd">
        <g id="Artboard-2" transform="translate(-635.000000, -244.000000)" stroke="#000000">
            <g id="Footer" transform="translate(185.000000, 161.000000)">
                <g id="12---Footer" transform="translate(345.000000, 83.000000)">
                    <g id="RS">
                        <g id="Group-4" transform="translate(106.572792, 1.216408)">
                            <ellipse id="Oval-Copy-3" stroke-width="1.2" cx="16.3868371" cy="16.5866766" rx="16.3868371" ry="16.5866766"></ellipse>
                            <g id="001-snapchat" transform="translate(6.554735, 7.237823)" stroke-width="0.7" fill="#050505" fill-rule="nonzero">
                                <path d="M9.56161003,1.0641147 C12.1304636,1.0649834 14.2702826,3.22969815 14.2733886,5.83616694 C14.2741243,6.44665538 14.2927193,7.00882763 14.3267625,7.52669623 C14.3477688,7.84621193 14.6103062,8.08299441 14.9113824,8.08299441 C14.9557244,8.08299441 15.0008838,8.07786495 15.0462475,8.06710963 L15.8509836,7.87616136 C15.8852311,7.86801214 15.9196013,7.86412367 15.9535628,7.86412367 C16.1579448,7.86412367 16.3461429,8.00547338 16.3920379,8.2148298 C16.4568958,8.5106838 16.2931368,8.80959893 16.0099201,8.9101198 L14.788369,9.40924933 C14.4799775,9.53525202 14.3143386,9.874996 14.4011835,10.1999721 C15.3812034,13.8672876 18.1185158,13.4858875 18.1185158,13.9636718 C18.1185158,14.5636531 16.0552838,14.648372 15.8688839,14.8370864 C15.6824839,15.0258009 15.8607919,15.9416163 15.4443039,16.1189136 C15.3657961,16.1523378 15.2542667,16.1639619 15.1182164,16.1639619 C14.804512,16.1639619 14.3608466,16.1019947 13.8932325,16.1019947 C13.4876154,16.1019947 13.0639754,16.1486148 12.6915434,16.3227683 C11.7035133,16.7847506 10.7509569,17.6476581 9.57011062,17.6476581 C8.38926433,17.6476581 7.4367079,16.7847506 6.44867786,16.3227683 C6.07616405,16.1485735 5.65264671,16.1019947 5.24698878,16.1019947 C4.7794155,16.1019947 4.33566838,16.1639619 4.02200481,16.1639619 C3.88603625,16.1639619 3.77438428,16.1522965 3.6959173,16.1189136 C3.27942929,15.9416163 3.45773732,15.0258009 3.27133738,14.8370864 C3.08493744,14.648372 1.02170545,14.5636118 1.02170545,13.9636305 C1.02170545,13.4858047 3.75901783,13.8672049 4.7390377,10.1999307 C4.82588266,9.874996 4.66024377,9.53525202 4.35181133,9.40920796 L3.13026029,8.91007843 C2.84700267,8.80955757 2.68324372,8.51064244 2.74814245,8.21478843 C2.79403746,8.00539065 2.98223561,7.86404094 3.18661757,7.86408231 C3.22053819,7.86408231 3.25494923,7.86797077 3.28919679,7.87611999 L4.09393287,8.06706827 C4.1392966,8.07782359 4.18445598,8.08295305 4.22879799,8.08295305 C4.52983329,8.08295305 4.79241159,7.8461292 4.81341785,7.52665486 C4.84746108,7.00878626 4.86609699,6.44661402 4.86683261,5.83612557 C4.8699386,3.22969815 6.99271558,1.06502477 9.56161003,1.0641147 L9.56161003,1.0641147 Z M9.56193698,0.0299494263 L9.56156916,0.0299494263 L9.56120135,0.0299494263 C8.79443184,0.030197626 8.04748342,0.186149749 7.34119888,0.493503669 C6.66323601,0.788488971 6.05307351,1.20910467 5.5276717,1.74368538 C5.00296465,2.27756287 4.59003217,2.8973588 4.30035824,3.58586467 C3.99915948,4.30179661 3.8459854,5.05847465 3.84504543,5.83488457 C3.84459588,6.21607789 3.83679005,6.5860195 3.82175054,6.94028315 L3.52234998,6.86921531 C3.41249621,6.84315435 3.29953645,6.82991703 3.1866993,6.82987567 C2.860857,6.8298343 2.53942846,6.94131732 2.28163175,7.14376551 C2.012678,7.35498343 1.82407118,7.65576005 1.75063099,7.9907055 C1.57583762,8.7879642 2.0107572,9.59283435 2.76444887,9.8758647 L3.66097497,10.242166 C3.06732324,12.0865378 1.97266802,12.4399741 1.23552797,12.6780389 C1.03993268,12.7412057 0.870983463,12.7957683 0.710126157,12.8765573 C0.0691898931,13.198555 0,13.7440565 0,13.9636305 C0,14.3842048 0.196657865,14.7680042 0.553805223,15.0442918 C0.731622839,15.1818772 0.951902535,15.2953871 1.22719085,15.3913163 C1.60240196,15.5220762 2.03736241,15.6050576 2.39087249,15.6715751 C2.40795541,15.8041551 2.43300762,15.9465803 2.47522449,16.0901225 C2.65050828,16.6862567 3.02040652,16.9531954 3.2998634,17.0721244 C3.5650164,17.1850139 3.83899693,17.1980444 4.02200481,17.1980444 C4.20100761,17.1980444 4.39022746,17.1838557 4.59056346,17.1688396 C4.80548942,17.1527066 5.02773079,17.1360772 5.24698878,17.1360772 C5.58676714,17.1360772 5.83970054,17.1771129 6.02021546,17.2615008 C6.26808121,17.37741 6.53094558,17.5336931 6.80925815,17.6991182 C7.58403783,18.159694 8.46217323,18.6817406 9.57011062,18.6817406 C10.678048,18.6817406 11.5561425,18.159694 12.3309222,17.6991182 C12.6092348,17.5336517 12.8720992,17.37741 13.1200058,17.2615008 C13.3005207,17.1770715 13.5534541,17.1360772 13.8932325,17.1360772 C14.1124904,17.1360772 14.3347318,17.152748 14.5496169,17.1688396 C14.7499529,17.1838557 14.9391728,17.1980444 15.1181756,17.1980444 C15.3011834,17.1980444 15.5751231,17.1850139 15.840317,17.0721244 C16.1197738,16.9531954 16.4896721,16.6862567 16.6649559,16.0901225 C16.7071727,15.9465803 16.7322658,15.8041551 16.7493079,15.6715751 C17.102818,15.6050162 17.5378193,15.5220762 17.9129895,15.3913163 C18.1883187,15.2953871 18.4085575,15.1818772 18.5863751,15.0442918 C18.9434816,14.7680042 19.1401804,14.3842048 19.1401804,13.9636305 C19.1401804,13.7440565 19.0709905,13.198555 18.4299725,12.8765987 C18.2691152,12.7958097 18.100166,12.7412471 17.9045707,12.6780803 C17.1674306,12.4400568 16.0727754,12.0865791 15.4791237,10.2422074 L16.3756089,9.87590606 C17.1293006,9.59287571 17.564261,8.7879642 17.3894676,7.9907055 C17.3160275,7.65576005 17.1274206,7.35498343 16.8584669,7.14376551 C16.6006702,6.94135868 16.2793234,6.82987567 15.9535628,6.82987567 C15.8407257,6.82987567 15.7277659,6.84311298 15.6178304,6.86917395 L15.318389,6.94024178 C15.3033495,6.5860195 15.2955436,6.21607789 15.2950941,5.83484321 C15.2941541,5.05781279 15.139754,4.30039014 14.836144,3.58350677 C14.5447127,2.89533183 14.1295325,2.27570137 13.602169,1.74178252 C13.0748464,1.20790504 12.4629674,0.787744372 11.783615,0.493007269 C11.0759818,0.186025649 10.3285021,0.0302389926 9.56193698,0.0299494263 L9.56193698,0.0299494263 Z" id="Shape"></path>
                            </g>
                        </g>
                    </g>
                </g>
            </g>
        </g>
    </g>
</svg>