<?xml version="1.0" encoding="UTF-8"?>
<svg width="36px" height="36px" viewBox="0 0 36 36" version="1.1" xmlns="http://www.w3.org/2000/svg" xmlns:xlink="http://www.w3.org/1999/xlink">
    <!-- Generator: Sketch 47.1 (45422) - http://www.bohemiancoding.com/sketch -->
    <title>Group 2</title>
    <desc>Created with Sketch.</desc>
    <defs></defs>
    <g id="Page-1" stroke="none" stroke-width="1" fill="none" fill-rule="evenodd">
        <g id="Artboard-2" transform="translate(-529.000000, -243.000000)">
            <g id="Footer" transform="translate(185.000000, 161.000000)">
                <g id="12---Footer" transform="translate(345.000000, 83.000000)">
                    <g id="RS">
                        <g id="Group-2" transform="translate(0.000000, 0.327644)">
                            <ellipse id="Oval-Copy" stroke="#000000" stroke-width="1.2" cx="16.7878738" cy="16.9926039" rx="16.7878738" ry="16.9926039"></ellipse>
                            <g id="004-twitter-logo-silhouette" transform="translate(6.715150, 8.032867)" fill-rule="nonzero" fill="#010002">
                                <path d="M20.7559167,2.05957978 C19.9919824,2.40908189 19.1722919,2.64611022 18.3110556,2.75193082 C19.1904364,2.20822585 19.8635804,1.3458335 20.1826183,0.321383668 C19.3577389,0.824889416 18.4472241,1.19049923 17.477053,1.388694 C16.7001632,0.532989846 15.5951123,0 14.369426,0 C12.0179667,0 10.1113699,1.96853624 10.1113699,4.39505647 C10.1113699,4.73920102 10.1489815,5.07532674 10.2216274,5.39674542 C6.68341609,5.21325769 3.5459778,3.46301582 1.44613355,0.80345917 C1.07907203,1.45161908 0.870257666,2.2068602 0.870257666,3.01305067 C0.870257666,4.53834498 1.62252522,5.88417849 2.76389901,6.67156497 C2.06609887,6.64747345 1.40981064,6.44927869 0.835257436,6.11984117 L0.835257436,6.17474742 C0.835257436,8.3039755 2.30346962,10.0810052 4.25025569,10.4854486 C3.89357214,10.5845459 3.51745532,10.6394522 3.12834908,10.6394522 C2.85340057,10.6394522 2.58750734,10.6113338 2.32680311,10.5577581 C2.86893361,12.3053387 4.44092555,13.5761664 6.30343296,13.611008 C4.84688752,14.7894615 3.01032505,15.4898314 1.01554932,15.4898314 C0.671855198,15.4898314 0.333316148,15.4684011 0,15.4295676 C1.88455213,16.679 4.1218876,17.4074883 6.52652552,17.4074883 C14.3591158,17.4074883 18.6405394,10.7091005 18.6405394,4.89992787 L18.6262612,4.33080075 C19.4628074,3.71475119 20.1865185,2.9407411 20.7559167,2.05957978 Z" id="Shape"></path>
                            </g>
                        </g>
                    </g>
                </g>
            </g>
        </g>
    </g>
</svg>